<?xml version="1.0" encoding="utf-8"?>
<!-- Generator: Adobe Illustrator 24.3.0, SVG Export Plug-In . SVG Version: 6.00 Build 0)  -->
<svg version="1.1" id="Layer_1" xmlns="http://www.w3.org/2000/svg" xmlns:xlink="http://www.w3.org/1999/xlink" x="0px" y="0px"
	 viewBox="0 0 300 300" style="enable-background:new 0 0 300 300;" xml:space="preserve">
<style type="text/css">
	.st0{fill:#E9EFE4;}
	.st1{fill:#B5CFCF;stroke:#73939F;stroke-width:2.8197;stroke-miterlimit:10;}
	.st2{fill:#DBA49A;}
	.st3{fill:none;stroke:#73939F;stroke-width:2.8197;stroke-miterlimit:10;}
</style>
<path class="st0" d="M269.6,300H30c-16.62,0-30.09-13.47-30.09-30.09V30.09C-0.08,13.47,13.39,0,30,0H269.6
	c16.62,0,30.09,13.47,30.09,30.09v239.82C299.69,286.53,286.21,300,269.6,300z"/>
<g>
	<g>
		<path class="st1" d="M179.5,106.5l31,8c0,0,4.8-12.64,5.94-17.65c1.87-8.24,1.35-20.26,0.86-20.22"/>
		<path class="st1" d="M190.19,97.84"/>
		<path class="st1" d="M179.5,106.21c0,0,12.42,1.46,20.19,3.75c7.47,2.2,20.84,8.99,20.84,8.99c-3.26,9.06-12.85,18.11-15.15,21.05
			s-11.01,10.91-11.01,10.91l-52.66-15.14c25.2-19.72,50.4-39.43,75.6-59.15"/>
		<path class="st1" d="M220.52,118.96l-78.82,16.83c0,0,15.95,19.32,22.59,23.72c14.32,9.49,29.64,5.55,29.64,5.55l0.44-14.14"/>
		<path class="st1" d="M179.5,105.5l1-31c0,0,10.96-2.01,16.97-1.9c8.45,0.16,19.99,3.57,19.83,4.03"/>
		<path class="st1" d="M190.19,97.84"/>
		<path class="st1" d="M179.5,106.21c0,0,1.57-12.4,1.21-20.5c-0.34-7.78-3.72-22.39-3.72-22.39c-9.58,0.98-20.67,8.12-24.08,9.64
			c-3.41,1.52-13.24,8.06-13.24,8.06l2.02,54.76c25.2-19.72,50.4-39.43,75.6-59.15"/>
		<path class="st1" d="M176.99,63.33l-35.3,72.46c0,0-14.92-20.13-17.59-27.63c-5.77-16.19,1.74-30.11,1.74-30.11l13.83,2.98"/>
	</g>
	<path class="st2" d="M202.55,205.24c-12.84,22.06-33.58,30.62-59.26,30.62c-40.16,0-64.2-31.61-64.2-69.8V64"/>
</g>
<line class="st3" x1="138.5" y1="80.5" x2="142.5" y2="135.5"/>
<line class="st3" x1="141.23" y1="135.57" x2="194.5" y2="151.5"/>
</svg>
