<?xml version="1.0" encoding="utf-8"?>
<!-- Generator: Adobe Illustrator 24.3.0, SVG Export Plug-In . SVG Version: 6.00 Build 0)  -->
<svg version="1.1" id="Layer_1" xmlns="http://www.w3.org/2000/svg" xmlns:xlink="http://www.w3.org/1999/xlink" x="0px" y="0px"
	 viewBox="0 0 300 300" style="enable-background:new 0 0 300 300;" xml:space="preserve">
<style type="text/css">
	.st0{fill:none;stroke:#182D33;stroke-width:7.1974;stroke-linejoin:round;stroke-miterlimit:10;}
</style>
<g>
	<path class="st0" d="M178.03,184.1v104.79c0,3.92-3.18,7.1-7.1,7.1h-39.08c-3.92,0-7.1-3.18-7.1-7.1V184.1c0-3.92-3.18-7.1-7.1-7.1
		H12.12c-3.92,0-7.1-3.18-7.1-7.1v-39.08c0-3.92,3.18-7.1,7.1-7.1h105.53c3.92,0,7.1-3.18,7.1-7.1V11.1c0-3.92,3.18-7.1,7.1-7.1
		h39.08c3.92,0,7.1,3.18,7.1,7.1v105.53c0,3.92,3.18,7.1,7.1,7.1h104.76c3.92,0,7.1,3.18,7.1,7.1v39.08c0,3.92-3.18,7.1-7.1,7.1
		H185.13C181.21,177,178.03,180.18,178.03,184.1z"/>
</g>
</svg>
