<?xml version="1.0" encoding="utf-8"?>
<!-- Generator: Adobe Illustrator 24.3.0, SVG Export Plug-In . SVG Version: 6.00 Build 0)  -->
<svg version="1.1" id="Layer_1" xmlns="http://www.w3.org/2000/svg" xmlns:xlink="http://www.w3.org/1999/xlink" x="0px" y="0px"
	 viewBox="0 0 300 300" style="enable-background:new 0 0 300 300;" xml:space="preserve">
<style type="text/css">
	.st0{fill:none;stroke:#182D33;stroke-width:7;stroke-linejoin:round;stroke-miterlimit:10;}
</style>
<g>
	<path class="st0" d="M108.8,169.08h187.46c0.7,0,1.25-0.55,1.25-1.25v-51.41c0-0.7-0.55-1.25-1.25-1.25H107.9l-1.05-2.32
		c-0.07-0.17-0.12-0.37-0.1-0.55l2.17-60.04h-2.72c-0.3,0-0.57,0.1-0.8,0.27L2.95,135.96c-0.3,0.22-0.45,0.6-0.45,0.97v1.85
		c0,0.37,0.17,0.72,0.45,0.97l102.46,83.43c0.22,0.17,0.5,0.27,0.8,0.27h2.72l-2.17-50.79c0-0.15,0.02-0.32,0.07-0.47l0.8-2.27
		C107.8,169.43,108.27,169.08,108.8,169.08z"/>
</g>
</svg>
