<?xml version="1.0" encoding="utf-8"?>
<!-- Generator: Adobe Illustrator 24.3.0, SVG Export Plug-In . SVG Version: 6.00 Build 0)  -->
<svg version="1.1" id="Layer_1" xmlns="http://www.w3.org/2000/svg" xmlns:xlink="http://www.w3.org/1999/xlink" x="0px" y="0px"
	 viewBox="0 0 300 300" style="enable-background:new 0 0 300 300;" xml:space="preserve">
<style type="text/css">
	.st0{fill:none;stroke:#182D33;stroke-width:6.8932;stroke-linejoin:round;stroke-miterlimit:10;}
</style>
<g>
	<path class="st0" d="M109.17,169.91h184.6c0.69,0,1.23-0.54,1.23-1.23v-50.63c0-0.69-0.54-1.23-1.23-1.23H108.29l-1.03-2.28
		c-0.07-0.17-0.12-0.37-0.1-0.54l2.14-59.13h-2.68c-0.29,0-0.56,0.1-0.79,0.27L4.94,137.3c-0.29,0.22-0.44,0.59-0.44,0.96v1.82
		c0,0.37,0.17,0.71,0.44,0.96l100.89,82.16c0.22,0.17,0.49,0.27,0.79,0.27h2.68l-2.14-50.02c0-0.15,0.02-0.32,0.07-0.47l0.79-2.23
		C108.19,170.25,108.66,169.91,109.17,169.91z"/>
</g>
</svg>
