<?xml version="1.0" encoding="utf-8"?>
<!-- Generator: Adobe Illustrator 24.3.0, SVG Export Plug-In . SVG Version: 6.00 Build 0)  -->
<svg version="1.1" id="Layer_1" xmlns="http://www.w3.org/2000/svg" xmlns:xlink="http://www.w3.org/1999/xlink" x="0px" y="0px"
	 viewBox="0 0 300 300" style="enable-background:new 0 0 300 300;" xml:space="preserve">
<style type="text/css">
	.st0{fill:none;stroke:#514D03;stroke-width:21.7844;stroke-miterlimit:10;}
	.st1{fill:none;stroke:#514D03;stroke-width:6.6122;stroke-miterlimit:10;}
</style>
<path class="st0" d="M123.36,290.41c-2.72-10.76,10.93-92.25,5.4-111.04c-5.53-18.78-49.08-15.29-50.08-27.46
	c-1.01-12.17-1.92-38.66,0-51.41c1.51-10.02,45.46-22.83,46.26,0c0.4,11.4-6.9,32.31-1.51,41.74c3.11,5.44,19.77,12.6,24.13,13.36
	c9.99,1.74,15.08-16.7,15.08-16.7s-0.6-105.34,6.03-114.79c5.76-8.2,40.24-8.32,45.75,0c6.15,9.28,7.75,88.26-4.52,115.21
	c-4.32,9.49-29.16,32.56-29.16,32.56s11.1,100.7,0.93,118.3C180.12,292.87,123.81,292.17,123.36,290.41z"/>
<line class="st1" x1="82.07" y1="75.23" x2="85.05" y2="83.4"/>
<line class="st1" x1="65.76" y1="82.89" x2="71.95" y2="89.74"/>
<line class="st1" x1="90.39" y1="70.22" x2="93.02" y2="80.25"/>
<line class="st1" x1="101.65" y1="70.85" x2="100.98" y2="78.25"/>
<line class="st1" x1="112.94" y1="72.46" x2="112.25" y2="78.01"/>
<line class="st1" x1="125.09" y1="74.55" x2="120.11" y2="82.49"/>
<line class="st1" x1="165.78" y1="7.21" x2="167.4" y2="14.68"/>
<line class="st1" x1="169.44" y1="0.82" x2="171.14" y2="10.94"/>
<line class="st1" x1="178.23" y1="0.66" x2="178.04" y2="8.48"/>
<line class="st1" x1="184.72" y1="0" x2="185.32" y2="7.64"/>
<line class="st1" x1="196.23" y1="0.91" x2="195.14" y2="7.48"/>
<line class="st1" x1="217.84" y1="5.93" x2="212.49" y2="13.08"/>
<line class="st1" x1="206.4" y1="0.6" x2="205.25" y2="8.48"/>
<line class="st1" x1="156.62" y1="16.48" x2="159.64" y2="26.52"/>
<line class="st1" x1="151.25" y1="28.51" x2="159.3" y2="29.63"/>
<line class="st1" x1="150.49" y1="33.71" x2="158.13" y2="35.98"/>
<line class="st1" x1="151.25" y1="40.53" x2="158.13" y2="43.14"/>
<line class="st1" x1="151.64" y1="48.99" x2="157.79" y2="51.26"/>
<line class="st1" x1="149.72" y1="57.44" x2="157.43" y2="59.74"/>
<line class="st1" x1="145.09" y1="63.29" x2="156.95" y2="66.22"/>
<line class="st1" x1="154.67" y1="78.52" x2="161.92" y2="74.55"/>
<line class="st1" x1="153.13" y1="86.5" x2="160.22" y2="85.2"/>
<line class="st1" x1="152.37" y1="91.37" x2="160.22" y2="91.37"/>
<line class="st1" x1="152.37" y1="100.8" x2="161.47" y2="100.8"/>
<line class="st1" x1="225.1" y1="21.55" x2="232.81" y2="18.56"/>
<line class="st1" x1="226.07" y1="27.65" x2="232.81" y2="27.02"/>
<line class="st1" x1="226.71" y1="33.54" x2="234.34" y2="35.96"/>
<line class="st1" x1="227.47" y1="45.52" x2="235.1" y2="42.95"/>
<line class="st1" x1="227.78" y1="54.98" x2="237.02" y2="55.63"/>
<line class="st1" x1="228.95" y1="65.87" x2="234.34" y2="64.08"/>
<line class="st1" x1="227.78" y1="73.51" x2="232.4" y2="71.56"/>
<line class="st1" x1="227.41" y1="77.2" x2="235.87" y2="79.18"/>
<line class="st1" x1="123.21" y1="88" x2="132.44" y2="85.85"/>
<line class="st1" x1="123.47" y1="95.89" x2="125.93" y2="95.6"/>
<line class="st1" x1="122.36" y1="104.13" x2="124.7" y2="103.4"/>
<line class="st1" x1="62.56" y1="94.94" x2="69.45" y2="99.31"/>
<line class="st1" x1="66.01" y1="104.37" x2="69.12" y2="104.37"/>
<line class="st1" x1="62.18" y1="111.52" x2="68.86" y2="111.52"/>
<line class="st1" x1="62.18" y1="118.67" x2="67.56" y2="118.02"/>
</svg>
