<?xml version="1.0" encoding="utf-8"?>
<!-- Generator: Adobe Illustrator 24.3.0, SVG Export Plug-In . SVG Version: 6.00 Build 0)  -->
<svg version="1.1" id="Layer_1" xmlns="http://www.w3.org/2000/svg" xmlns:xlink="http://www.w3.org/1999/xlink" x="0px" y="0px"
	 viewBox="0 0 300 300" style="enable-background:new 0 0 300 300;" xml:space="preserve">
<style type="text/css">
	.st0{fill:none;stroke:#514D03;stroke-width:22.1223;stroke-miterlimit:10;}
	.st1{fill:none;stroke:#514D03;stroke-width:6.6122;stroke-miterlimit:10;}
</style>
<path class="st0" d="M121.88,287.44c-2.76-10.92,11.1-93.68,5.49-112.76s-49.84-15.52-50.86-27.89s-1.95-39.26,0-52.21
	c1.53-10.17,46.16-23.18,46.97,0c0.4,11.57-7.01,32.81-1.53,42.39c3.16,5.52,20.07,12.79,24.51,13.56
	c10.15,1.76,15.32-16.96,15.32-16.96s-0.61-106.98,6.13-116.58c5.85-8.33,40.86-8.45,46.46,0c6.25,9.42,7.87,89.62-4.6,117
	c-4.39,9.64-29.61,33.06-29.61,33.06s11.28,102.26,0.94,120.14C179.51,289.95,122.33,289.23,121.88,287.44z"/>
<line class="st1" x1="152.37" y1="100.8" x2="161.47" y2="100.8"/>
</svg>
