<?xml version="1.0" encoding="utf-8"?>
<!-- Generator: Adobe Illustrator 24.3.0, SVG Export Plug-In . SVG Version: 6.00 Build 0)  -->
<svg version="1.1" id="Layer_1" xmlns="http://www.w3.org/2000/svg" xmlns:xlink="http://www.w3.org/1999/xlink" x="0px" y="0px"
	 viewBox="0 0 300 300" style="enable-background:new 0 0 300 300;" xml:space="preserve">
<style type="text/css">
	.st0{fill:none;stroke:#182D33;stroke-width:7.8517;stroke-linecap:round;stroke-linejoin:round;stroke-miterlimit:10;}
</style>
<g>
	<path class="st0" d="M49.66,54.08H154.8h105.13c0,0,0,21.02,0,42.31v159.93c0,21.29-18.54,38.71-41.19,38.71H91.75
		c-22.65,0-41.18-17.42-41.18-38.71V96.4C50.57,75.1,49.66,54.08,49.66,54.08z"/>
	<line class="st0" x1="49.66" y1="38.92" x2="259.93" y2="38.92"/>
	<line class="st0" x1="94.71" y1="66.84" x2="94.71" y2="282.27"/>
	<line class="st0" x1="154.8" y1="66.84" x2="154.8" y2="282.27"/>
	<line class="st0" x1="216.79" y1="66.84" x2="216.79" y2="282.27"/>
	<path class="st0" d="M217.89,38.92c0,0-14.72-22.12-20.03-28.43c-1.62-1.92-6.59-4.2-9.14-4.72c-8.78-1.78-68.81,0-68.81,0
		c-3.69,0-7.13,1.78-9.1,4.72L91.7,38.92"/>
</g>
</svg>
