<?xml version="1.0" encoding="utf-8"?>
<!-- Generator: Adobe Illustrator 24.3.0, SVG Export Plug-In . SVG Version: 6.00 Build 0)  -->
<svg version="1.1" id="Layer_1" xmlns="http://www.w3.org/2000/svg" xmlns:xlink="http://www.w3.org/1999/xlink" x="0px" y="0px"
	 viewBox="0 0 1125 2436" style="enable-background:new 0 0 1125 2436;" xml:space="preserve">
<style type="text/css">
	.st0{opacity:0.61;}
	.st1{clip-path:url(#SVGID_2_);}
	.st2{fill:#D2DAD2;}
	.st3{fill:none;stroke:#FFFFFF;stroke-width:1.6611;stroke-miterlimit:10;}
	.st4{fill:none;stroke:#FFFFFF;stroke-width:2.4566;stroke-miterlimit:10;}
	.st5{fill:none;stroke:#FFFFFF;stroke-width:1.9473;stroke-miterlimit:10;}
	.st6{fill:none;}
	.st7{font-family:'Futura-Medium';}
	.st8{font-size:48px;}
	.st9{letter-spacing:1;}
</style>
<g class="st0">
	<defs>
		<rect id="SVGID_1_" x="3" y="-3" class="st0" width="1116" height="2439"/>
	</defs>
	<clipPath id="SVGID_2_">
		<use xlink:href="#SVGID_1_"  style="overflow:visible;"/>
	</clipPath>
	<g class="st1">
		<g>
			<path class="st2" d="M191.74,1932.76c-35.44-135.66-31.56-395.53,0-401.81c31.56-6.27,33.22,72.91,33.22,72.91
				s15.71,131.56,18.27,140.64c6.09,21.59,3.32,161.13-0.55,172.76c-3.88,11.63-13.84,27.13-25.47,25.47
				S191.74,1932.76,191.74,1932.76z"/>
			<path class="st2" d="M280.3,1538.35c-16.59,91.89-55.43,136.25-63.07,130.19l4.96,62.67c0,0,44.85-29.9,54.82-50.94
				c26.74-56.45,34.88-112.44,34.88-127.77c0-9.85,8.88-35.15,0-39.42C302.78,1508.7,282.09,1528.39,280.3,1538.35z"/>
			<path class="st2" d="M169.37,1772.8c0,0-27.86-22.42-29.12-64.29c-1.66-55.37-18-156.08-19.8-203.18
				c-1.8-47.1-29.09-25.62-29.09-25.62s-4.82,173.43-2.05,191.14c6.42,41.09,15.39,88.11,31.56,112.4
				c8.54,12.83,58.14,45.4,58.14,45.4l-4.28-19.86L169.37,1772.8z"/>
			<path class="st3" d="M199.62,1936.88c0,0-32.52-285.13-18.12-393.66"/>
			<path class="st3" d="M211.4,1941.34c0.15-0.53-19.93-392.02-25.47-405.86"/>
			<path class="st3" d="M225.24,1941.34c9.01,0.03-0.33-406.14-18.27-405.31"/>
			<path class="st3" d="M217.49,1943c13.74-1.85-17.15-415.16-17.72-411.95"/>
			<path class="st3" d="M286.74,1527.01c-1.15,73.8-52.84,140.77-52.84,140.77"/>
			<path class="st3" d="M294.98,1519c-13.26,133.86-59.13,167.56-59.13,167.56"/>
			<path class="st3" d="M301.65,1514.43c7.75,68.66-49.28,177.18-64.78,181.61"/>
			<path class="st3" d="M309.41,1512.22c0,0-2.77,165.56-67.55,193.24"/>
			<path class="st3" d="M112.35,1477.98c-1.73,29.81,15.04,236.34,29.28,266.25c3.92,8.24,29.46,40.19,29.46,40.19"/>
			<path class="st3" d="M108.48,1474.65c-7.45,16.4-16.12,264.03,62.5,324.94"/>
			<path class="st3" d="M97.89,1476.23c-8.86,191.58,36.01,340.65,76.96,332.77"/>
			<path class="st3" d="M91.25,1479.55c-6.64,239.75,44.85,337.76,83.61,337.76"/>
		</g>
		<g>
			<path class="st2" d="M776.74,112.76c-35.44-135.66-31.56-395.53,0-401.81c31.56-6.27,33.22,72.91,33.22,72.91
				S825.68-84.58,828.24-75.5c6.09,21.59,3.32,161.13-0.55,172.75s-13.84,27.13-25.47,25.47
				C790.59,121.06,776.74,112.76,776.74,112.76z"/>
			<path class="st2" d="M865.3-281.65c-16.59,91.89-55.43,136.25-63.07,130.19l4.96,62.67c0,0,44.85-29.9,54.82-50.94
				c26.74-56.45,34.88-112.44,34.88-127.77c0-9.85,8.88-35.15,0-39.42C887.78-311.3,867.09-291.61,865.3-281.65z"/>
			<path class="st2" d="M754.37-47.2c0,0-27.86-22.42-29.12-64.29c-1.66-55.37-18-156.08-19.8-203.18
				c-1.8-47.1-29.09-25.62-29.09-25.62s-4.82,173.43-2.05,191.14c6.42,41.09,15.39,88.11,31.56,112.4
				c8.54,12.83,58.14,45.4,58.14,45.4l-4.28-19.86L754.37-47.2z"/>
			<path class="st3" d="M784.62,116.88c0,0-32.52-285.13-18.12-393.66"/>
			<path class="st3" d="M796.4,121.34c0.15-0.53-19.93-392.02-25.47-405.86"/>
			<path class="st3" d="M810.24,121.34c9.01,0.03-0.33-406.14-18.27-405.31"/>
			<path class="st3" d="M802.49,123c13.74-1.85-17.15-415.16-17.72-411.95"/>
			<path class="st3" d="M871.74-292.99c-1.15,73.8-52.84,140.77-52.84,140.77"/>
			<path class="st3" d="M879.98-301c-13.26,133.86-59.13,167.56-59.13,167.56"/>
			<path class="st3" d="M886.65-305.57c7.75,68.66-49.28,177.18-64.78,181.61"/>
			<path class="st3" d="M894.41-307.78c0,0-2.77,165.56-67.55,193.24"/>
			<path class="st3" d="M697.35-342.02c-1.73,29.81,15.04,236.34,29.28,266.25c3.92,8.24,29.46,40.19,29.46,40.19"/>
			<path class="st3" d="M693.48-345.35c-7.45,16.4-16.12,264.03,62.5,324.94"/>
			<path class="st3" d="M682.89-343.77C674.03-152.19,718.9-3.12,759.86-11"/>
			<path class="st3" d="M676.25-340.45C669.6-100.7,721.1-2.69,759.86-2.69"/>
		</g>
		<g>
			<path class="st2" d="M160.74,818.76c-35.44-135.66-31.56-395.53,0-401.81s33.22,72.91,33.22,72.91s15.71,131.56,18.27,140.64
				c6.09,21.59,3.32,161.13-0.55,172.75c-3.88,11.63-13.84,27.13-25.47,25.47C174.59,827.06,160.74,818.76,160.74,818.76z"/>
			<path class="st2" d="M249.3,424.35c-16.59,91.89-55.43,136.25-63.07,130.19l4.96,62.67c0,0,44.85-29.9,54.82-50.94
				c26.74-56.45,34.88-112.44,34.88-127.77c0-9.85,8.88-35.15,0-39.42C271.78,394.7,251.09,414.39,249.3,424.35z"/>
			<path class="st2" d="M138.37,658.8c0,0-27.86-22.42-29.12-64.29c-1.66-55.37-18-156.08-19.8-203.18
				c-1.8-47.1-29.09-25.62-29.09-25.62s-4.82,173.43-2.05,191.14c6.42,41.09,15.39,88.11,31.56,112.4
				c8.54,12.83,58.14,45.4,58.14,45.4l-4.28-19.86L138.37,658.8z"/>
			<path class="st3" d="M168.62,822.88c0,0-32.52-285.13-18.12-393.66"/>
			<path class="st3" d="M180.4,827.34c0.15-0.53-19.93-392.02-25.47-405.86"/>
			<path class="st3" d="M194.24,827.34c9.01,0.03-0.33-406.14-18.27-405.31"/>
			<path class="st3" d="M186.49,829c13.74-1.85-17.15-415.16-17.72-411.95"/>
			<path class="st3" d="M255.74,413.01c-1.15,73.8-52.84,140.77-52.84,140.77"/>
			<path class="st3" d="M263.98,405c-13.26,133.86-59.13,167.56-59.13,167.56"/>
			<path class="st3" d="M270.65,400.43c7.75,68.66-49.28,177.18-64.78,181.61"/>
			<path class="st3" d="M278.41,398.22c0,0-2.77,165.56-67.55,193.24"/>
			<path class="st3" d="M81.35,363.98c-1.73,29.81,15.04,236.34,29.28,266.25c3.92,8.24,29.46,40.19,29.46,40.19"/>
			<path class="st3" d="M77.48,360.65c-7.45,16.4-16.12,264.03,62.5,324.94"/>
			<path class="st3" d="M66.89,362.23C58.03,553.81,102.9,702.88,143.86,695"/>
			<path class="st3" d="M60.25,365.55C53.6,605.3,105.1,703.31,143.86,703.31"/>
		</g>
		<g>
			<path class="st2" d="M913.74,2479.76c-35.44-135.66-31.56-395.53,0-401.81c31.56-6.27,33.22,72.91,33.22,72.91
				s15.71,131.56,18.27,140.64c6.09,21.59,3.32,161.13-0.55,172.75s-13.84,27.13-25.47,25.47S913.74,2479.76,913.74,2479.76z"/>
			<path class="st2" d="M1002.3,2085.35c-16.59,91.89-55.43,136.25-63.07,130.19l4.96,62.67c0,0,44.85-29.9,54.82-50.94
				c26.74-56.45,34.88-112.44,34.88-127.77c0-9.85,8.88-35.15,0-39.42C1024.78,2055.7,1004.09,2075.39,1002.3,2085.35z"/>
			<path class="st2" d="M891.37,2319.8c0,0-27.86-22.42-29.12-64.29c-1.66-55.37-18-156.08-19.8-203.18
				c-1.8-47.1-29.09-25.62-29.09-25.62s-4.82,173.43-2.05,191.14c6.42,41.09,15.39,88.11,31.56,112.4
				c8.54,12.83,58.14,45.4,58.14,45.4l-4.28-19.86L891.37,2319.8z"/>
			<path class="st3" d="M921.62,2483.88c0,0-32.52-285.13-18.12-393.66"/>
			<path class="st3" d="M933.4,2488.34c0.15-0.53-19.93-392.02-25.47-405.86"/>
			<path class="st3" d="M947.24,2488.34c9.01,0.03-0.33-406.14-18.27-405.31"/>
			<path class="st3" d="M939.49,2490c13.74-1.85-17.15-415.16-17.72-411.95"/>
			<path class="st3" d="M1008.74,2074.01c-1.15,73.8-52.84,140.77-52.84,140.77"/>
			<path class="st3" d="M1016.98,2066c-13.26,133.86-59.13,167.56-59.13,167.56"/>
			<path class="st3" d="M1023.65,2061.44c7.75,68.66-49.28,177.18-64.78,181.61"/>
			<path class="st3" d="M1031.41,2059.22c0,0-2.77,165.56-67.55,193.24"/>
			<path class="st3" d="M834.35,2024.98c-1.73,29.81,15.04,236.34,29.28,266.25c3.92,8.24,29.46,40.19,29.46,40.19"/>
			<path class="st3" d="M830.48,2021.65c-7.45,16.4-16.12,264.03,62.5,324.94"/>
			<path class="st3" d="M819.89,2023.23c-8.86,191.58,36.01,340.65,76.96,332.77"/>
			<path class="st3" d="M813.25,2026.55c-6.64,239.75,44.85,337.76,83.61,337.76"/>
		</g>
		<g>
			<path class="st2" d="M427.57,1957.91c-67.3-47.86,12.28-140.85,62.23-177.69s219.06,110.93,119.96,179.74
				C510.67,2028.77,464.69,1984.31,427.57,1957.91z"/>
			<path class="st4" d="M503.83,1774.79c-16.89,23.85-141.43,152.41-32.04,211.78"/>
			<path class="st4" d="M503.83,1774.79c-0.1,66.84-118.92,168.68-32.04,211.78"/>
			<path class="st4" d="M503.83,1774.79c72.07,10.9,40.03,222.68-32.04,211.78"/>
			<path class="st4" d="M562.68,1793.32c67.86,17.41,12.38,231.56-48.31,203.08"/>
			<path class="st4" d="M616.73,1844.09c-0.1,0.51,12.29,153.39-59.78,142.48"/>
			<path class="st4" d="M489.8,1780.21"/>
		</g>
		<g>
			<path class="st2" d="M-67.43,2451.91c-67.3-47.86,12.28-140.85,62.23-177.69c49.95-36.85,219.06,110.93,119.96,179.74
				C15.67,2522.77-30.31,2478.31-67.43,2451.91z"/>
			<path class="st4" d="M8.83,2268.79c-16.89,23.85-141.43,152.41-32.04,211.78"/>
			<path class="st4" d="M8.83,2268.79c-0.1,66.84-118.92,168.68-32.04,211.78"/>
			<path class="st4" d="M8.83,2268.79c72.07,10.9,40.03,222.68-32.04,211.78"/>
			<path class="st4" d="M67.68,2287.32c67.86,17.41,12.38,231.56-48.31,203.08"/>
			<path class="st4" d="M121.73,2338.09c-0.1,0.51,12.29,153.39-59.78,142.48"/>
			<path class="st4" d="M-5.2,2274.21"/>
		</g>
		<g>
			<path class="st2" d="M170.57,1215.91c-67.3-47.86,12.28-140.85,62.23-177.69c49.95-36.85,219.06,110.93,119.96,179.74
				C253.67,1286.77,207.69,1242.31,170.57,1215.91z"/>
			<path class="st4" d="M246.83,1032.79c-16.89,23.85-141.43,152.41-32.04,211.78"/>
			<path class="st4" d="M246.83,1032.79c-0.1,66.84-118.92,168.68-32.04,211.78"/>
			<path class="st4" d="M246.83,1032.79c72.07,10.9,40.03,222.68-32.04,211.78"/>
			<path class="st4" d="M305.68,1051.32c67.86,17.41,12.38,231.56-48.31,203.08"/>
			<path class="st4" d="M359.73,1102.09c-0.1,0.51,12.29,153.39-59.78,142.48"/>
			<path class="st4" d="M232.8,1038.21"/>
		</g>
		<g>
			<path class="st2" d="M1041.57,1565.91c-67.3-47.86,12.28-140.85,62.23-177.69c49.95-36.85,219.06,110.93,119.96,179.74
				C1124.67,1636.77,1078.69,1592.31,1041.57,1565.91z"/>
			<path class="st4" d="M1117.83,1382.79c-16.89,23.85-141.43,152.41-32.04,211.78"/>
			<path class="st4" d="M1117.83,1382.79c-0.1,66.84-118.92,168.68-32.04,211.78"/>
			<path class="st4" d="M1117.83,1382.79c72.07,10.9,40.03,222.68-32.04,211.78"/>
			<path class="st4" d="M1176.68,1401.32c67.86,17.41,12.38,231.56-48.31,203.08"/>
			<path class="st4" d="M1230.73,1452.09c-0.1,0.51,12.29,153.39-59.78,142.48"/>
			<path class="st4" d="M1103.8,1388.21"/>
		</g>
		<g>
			<path class="st2" d="M-26.43,126.91C-93.73,79.05-14.15-13.94,35.8-50.79S254.86,60.14,155.76,128.96S10.69,153.31-26.43,126.91z
				"/>
			<path class="st4" d="M49.83-56.21C32.93-32.36-91.6,96.2,17.79,155.57"/>
			<path class="st4" d="M49.83-56.21c-0.1,66.84-118.92,168.68-32.04,211.78"/>
			<path class="st4" d="M49.83-56.21c72.07,10.9,40.03,222.68-32.04,211.78"/>
			<path class="st4" d="M108.68-37.68c67.86,17.41,12.38,231.56-48.31,203.08"/>
			<path class="st4" d="M162.73,13.09c-0.1,0.51,12.29,153.39-59.78,142.48"/>
			<path class="st4" d="M35.8-50.79"/>
		</g>
		<g>
			<path class="st2" d="M530.12,237.88c-71.71-62.31-168.43-34.4-141.17,4.22s68.05,17.15,101.2,15.23
				C523.31,255.4,530.12,237.88,530.12,237.88z"/>
			<path class="st2" d="M476.96,207.06c-17.58-25.97-92.06-53.04-66.5-93.7c25.56-40.67,87.02-3.99,94.59,29.27
				c2.46,10.83,5.64,24.35,8.8,37.66c3.65,15.37,7.28,30.46,9.78,40.81c1.98,8.21,3.25,13.43,3.25,13.43L476.96,207.06z"/>
			<path class="st2" d="M508.06,208.99c9.09-58.42-2.74-101.71,35.95-127.45s74.74-6.59,60.61,48.1s-60.63,54.48-80.22,91.9"/>
			<path class="st2" d="M505.57,209.6c46.84-28.29,135.48-79.03,138.4-38.18c2.92,40.85-43.75,34.28-65.26,44.16
				C557.19,225.46,505.57,209.6,505.57,209.6z"/>
			<path class="st2" d="M511.31,217.61c51.13-10.93,87.14-25.64,95.02,2.39s-24.91,43.67-52.24,27.71
				C526.77,231.75,511.31,217.61,511.31,217.61z"/>
			<path class="st5" d="M410.45,113.35c57.36,63.84,116.42,121.18,116.42,121.18"/>
			<path class="st5" d="M643.97,171.42c-42.76,20.37-124.5,32.43-124.5,32.43c35.65-69.18,67.01-132.14,67.01-132.14"/>
			<path class="st5" d="M603.19,242.1c-69.49-23.69-91.88-24.49-91.88-24.49"/>
			<path class="st5" d="M388.95,229.85c49.98,9.97,127.31-1.17,127.31-1.17"/>
		</g>
		<g>
			<path class="st2" d="M-25.88,1385.88c-71.71-62.31-168.43-34.4-141.17,4.22s68.05,17.15,101.2,15.23
				S-25.88,1385.88-25.88,1385.88z"/>
			<path class="st2" d="M-79.04,1355.06c-17.58-25.97-92.06-53.04-66.5-93.7s87.02-3.99,94.59,29.27
				c2.46,10.83,5.64,24.35,8.8,37.66c3.65,15.37,7.28,30.46,9.78,40.81c1.98,8.21,3.25,13.43,3.25,13.43L-79.04,1355.06z"/>
			<path class="st2" d="M-47.94,1356.99c9.09-58.42-2.74-101.71,35.95-127.45c38.69-25.74,74.74-6.59,60.61,48.1
				s-60.63,54.48-80.22,91.9"/>
			<path class="st2" d="M-50.43,1357.6c46.84-28.29,135.48-79.03,138.4-38.18c2.92,40.85-43.75,34.28-65.26,44.16
				S-50.43,1357.6-50.43,1357.6z"/>
			<path class="st2" d="M-44.69,1365.61c51.13-10.93,87.14-25.64,95.02,2.39s-24.91,43.67-52.24,27.71
				C-29.23,1379.75-44.69,1365.61-44.69,1365.61z"/>
			<path class="st5" d="M-145.55,1261.35c57.36,63.84,116.42,121.18,116.42,121.18"/>
			<path class="st5" d="M87.97,1319.42c-42.76,20.37-124.5,32.43-124.5,32.43c35.65-69.18,67.01-132.14,67.01-132.14"/>
			<path class="st5" d="M47.19,1390.1c-69.49-23.69-91.88-24.49-91.88-24.49"/>
			<path class="st5" d="M-167.05,1377.85c49.98,9.97,127.31-1.17,127.31-1.17"/>
		</g>
		<g>
			<path class="st2" d="M478.12,2337.88c-71.71-62.31-168.43-34.4-141.17,4.22c27.26,38.62,68.05,17.15,101.2,15.23
				C471.31,2355.4,478.12,2337.88,478.12,2337.88z"/>
			<path class="st2" d="M424.96,2307.06c-17.58-25.97-92.06-53.04-66.5-93.7c25.56-40.67,87.02-3.99,94.59,29.27
				c2.46,10.83,5.64,24.35,8.8,37.66c3.65,15.37,7.28,30.46,9.78,40.81c1.98,8.21,3.25,13.43,3.25,13.43L424.96,2307.06z"/>
			<path class="st2" d="M456.06,2308.99c9.09-58.42-2.74-101.71,35.95-127.45c38.69-25.74,74.74-6.59,60.61,48.1
				c-14.13,54.69-60.63,54.48-80.22,91.9"/>
			<path class="st2" d="M453.57,2309.6c46.84-28.29,135.48-79.03,138.4-38.18c2.92,40.85-43.75,34.28-65.26,44.16
				C505.19,2325.46,453.57,2309.6,453.57,2309.6z"/>
			<path class="st2" d="M459.31,2317.61c51.13-10.93,87.14-25.64,95.02,2.39s-24.91,43.67-52.24,27.71
				C474.77,2331.75,459.31,2317.61,459.31,2317.61z"/>
			<path class="st5" d="M358.45,2213.35c57.36,63.84,116.42,121.18,116.42,121.18"/>
			<path class="st5" d="M591.97,2271.42c-42.76,20.37-124.5,32.43-124.5,32.43c35.65-69.18,67.01-132.14,67.01-132.14"/>
			<path class="st5" d="M551.19,2342.1c-69.49-23.69-91.88-24.49-91.88-24.49"/>
			<path class="st5" d="M336.95,2329.85c49.98,9.97,127.31-1.17,127.31-1.17"/>
		</g>
		<g>
			<path class="st2" d="M1027.12,944.88c-71.71-62.31-168.43-34.4-141.17,4.22c27.26,38.62,68.05,17.15,101.2,15.23
				C1020.31,962.4,1027.12,944.88,1027.12,944.88z"/>
			<path class="st2" d="M973.96,914.06c-17.58-25.97-92.06-53.04-66.5-93.7c25.56-40.67,87.02-3.99,94.59,29.27
				c2.46,10.83,5.64,24.35,8.8,37.66c3.65,15.37,7.28,30.46,9.78,40.81c1.98,8.21,3.25,13.43,3.25,13.43L973.96,914.06z"/>
			<path class="st2" d="M1005.06,915.99c9.09-58.42-2.74-101.71,35.95-127.45c38.69-25.74,74.74-6.59,60.61,48.1
				c-14.13,54.69-60.63,54.48-80.22,91.9"/>
			<path class="st2" d="M1002.57,916.6c46.84-28.29,135.48-79.03,138.4-38.18c2.92,40.85-43.75,34.28-65.26,44.16
				C1054.19,932.46,1002.57,916.6,1002.57,916.6z"/>
			<path class="st2" d="M1008.31,924.61c51.13-10.93,87.14-25.64,95.02,2.39s-24.91,43.67-52.24,27.71
				C1023.77,938.75,1008.31,924.61,1008.31,924.61z"/>
			<path class="st5" d="M907.45,820.35c57.36,63.84,116.42,121.18,116.42,121.18"/>
			<path class="st5" d="M1140.97,878.42c-42.76,20.37-124.5,32.43-124.5,32.43c35.65-69.18,67.01-132.14,67.01-132.14"/>
			<path class="st5" d="M1100.19,949.1c-69.49-23.69-91.88-24.49-91.88-24.49"/>
			<path class="st5" d="M885.95,936.85c49.98,9.97,127.31-1.17,127.31-1.17"/>
		</g>
		<g>
			<path class="st2" d="M668.67,1160.74c0.97-37.13,13.03-62.26,24.62-75.3c11.58-13.03,116.19,53.07,98.65,47.78
				C754.36,1121.89,668.46,1168.8,668.67,1160.74z"/>
			<path class="st2" d="M661.69,1161.68c-18.82,42.5,6.98,125.04,6.98,125.04c-25.81,20.27-59.11-69.5-72.14-83.98
				C582.76,1187.43,661.69,1161.68,661.69,1161.68z"/>
			<path class="st2" d="M612.46,1265c7.24,18.82-0.11,49.22,36.2,86.88c10.14,10.51,5.79-43.44,5.79-43.44L612.46,1265z"/>
			<path class="st2" d="M699.34,1289.69c0,0-15.93-63.78,11.58-82.61s75.35,6.3,73.85,0c-9.44-39.61-110.87-34.78-110.87-34.78
				S648.66,1230.44,699.34,1289.69z"/>
			<path class="st2" d="M706.68,1161.68c0,0,11.67-29.22,133.19-11.37c0,0,48.75,88.57-25.4,129.76
				C816.21,1278.77,844.72,1177.59,706.68,1161.68z"/>
			<path class="st2" d="M789.75,1221.02c-4.48-2.27,8.24,72.77-80.33,64.54c-7.6-0.71,55.61,45.31,55.61,45.31
				S842.61,1247.8,789.75,1221.02z"/>
			<path class="st2" d="M716.98,1220.97c0.23-1.08-0.64,2.39-1.13,3.9c-3.6,11.09-11.29,31.62-7.06,40.13
				c7.5,15.07,35.65,6.14,35.65,6.14S714.23,1233.97,716.98,1220.97z"/>
			<path class="st2" d="M741.69,1206.6c3.43-1.37,19.22-4.12,30.89,8.93s2.6,39.45-3.43,31.74
				C760.44,1236.13,741.69,1206.6,741.69,1206.6z"/>
			<path class="st2" d="M737.57,1247.27c-1.37-6.33-11.89-18.53-11.58-32.42c0.22-9.46,19.13,9.77,21.19,16.21
				C749.24,1237.5,737.57,1247.27,737.57,1247.27z"/>
			<path class="st2" d="M751.27,1242.41c0.44,4.12-8.08,12.12,1.41,22.59c2.54,2.81,6.11-7.24,5.82-16.35
				C758.3,1242.5,751.27,1242.41,751.27,1242.41z"/>
			<path class="st2" d="M675.23,1293.57c-10.68,15.54-7.12,83.08,12.46,83.67c19.58,0.59,62.73-41.54,70.82-35.61
				C766.6,1347.57,675.23,1293.57,675.23,1293.57z"/>
			<path class="st2" d="M825.35,1287.05c-8.05-8.9-40.54,84.85-94.05,81.88c0.17,6.85,42.43,18.99,72.1,19.58
				c21.03,0.42,29.09,13.29,31.45,11.27C840.62,1394.85,847.89,1311.97,825.35,1287.05z"/>
			<path class="st2" d="M838.26,1277.29c7.26-9.24,17.94-27.87,20.31-28.64c2.37-0.77,37.98,30.69-5.48,83.99L838.26,1277.29z"/>
		</g>
		<g>
			<path class="st2" d="M463.67,559.74c0.97-37.13,13.03-62.26,24.62-75.3c11.58-13.03,116.19,53.07,98.65,47.78
				C549.36,520.89,463.46,567.8,463.67,559.74z"/>
			<path class="st2" d="M456.69,560.68c-18.82,42.5,6.98,125.04,6.98,125.04c-25.81,20.27-59.11-69.5-72.14-83.98
				C377.76,586.43,456.69,560.68,456.69,560.68z"/>
			<path class="st2" d="M407.46,664c7.24,18.82-0.11,49.22,36.2,86.88c10.14,10.51,5.79-43.44,5.79-43.44L407.46,664z"/>
			<path class="st2" d="M494.34,688.69c0,0-15.93-63.78,11.58-82.61c27.51-18.82,75.35,6.3,73.85,0
				c-9.44-39.61-110.87-34.78-110.87-34.78S443.66,629.44,494.34,688.69z"/>
			<path class="st2" d="M501.68,560.68c0,0,11.67-29.22,133.19-11.37c0,0,48.75,88.57-25.4,129.76
				C611.21,677.77,639.72,576.59,501.68,560.68z"/>
			<path class="st2" d="M584.75,620.02c-4.48-2.27,8.24,72.77-80.33,64.54c-7.6-0.71,55.61,45.31,55.61,45.31
				S637.61,646.8,584.75,620.02z"/>
			<path class="st2" d="M511.98,619.97c0.23-1.08-0.64,2.39-1.13,3.9c-3.6,11.09-11.29,31.62-7.06,40.13
				c7.5,15.07,35.65,6.14,35.65,6.14S509.23,632.97,511.98,619.97z"/>
			<path class="st2" d="M536.69,605.6c3.43-1.37,19.22-4.12,30.89,8.93c11.67,13.04,2.6,39.45-3.43,31.74
				C555.44,635.13,536.69,605.6,536.69,605.6z"/>
			<path class="st2" d="M532.57,646.27c-1.37-6.33-11.89-18.53-11.58-32.42c0.22-9.46,19.13,9.77,21.19,16.21
				C544.24,636.5,532.57,646.27,532.57,646.27z"/>
			<path class="st2" d="M546.27,641.41c0.44,4.12-8.08,12.12,1.41,22.59c2.54,2.81,6.11-7.24,5.82-16.35
				C553.3,641.5,546.27,641.41,546.27,641.41z"/>
			<path class="st2" d="M470.23,692.57c-10.68,15.55-7.12,83.08,12.46,83.67c19.58,0.59,62.73-41.54,70.82-35.61
				C561.6,746.57,470.23,692.57,470.23,692.57z"/>
			<path class="st2" d="M620.35,686.05c-8.05-8.9-40.54,84.85-94.05,81.88c0.17,6.85,42.43,18.99,72.1,19.58
				c21.03,0.42,29.09,13.29,31.45,11.27C635.62,793.85,642.89,710.97,620.35,686.05z"/>
			<path class="st2" d="M633.26,676.29c7.26-9.24,17.94-27.87,20.31-28.64c2.37-0.77,37.98,30.69-5.48,83.99L633.26,676.29z"/>
		</g>
		<g>
			<path class="st2" d="M1006.67,339.74c0.97-37.13,13.03-62.26,24.62-75.3c11.58-13.03,116.19,53.07,98.65,47.78
				C1092.36,300.89,1006.46,347.8,1006.67,339.74z"/>
			<path class="st2" d="M999.69,340.68c-18.82,42.5,6.98,125.04,6.98,125.04c-25.81,20.27-59.11-69.5-72.14-83.98
				C920.76,366.43,999.69,340.68,999.69,340.68z"/>
			<path class="st2" d="M950.46,444c7.24,18.82-0.11,49.22,36.2,86.88c10.14,10.51,5.79-43.44,5.79-43.44L950.46,444z"/>
			<path class="st2" d="M1037.34,468.69c0,0-15.93-63.78,11.58-82.61c27.51-18.82,75.35,6.3,73.85,0
				c-9.44-39.61-110.87-34.78-110.87-34.78S986.66,409.44,1037.34,468.69z"/>
			<path class="st2" d="M1044.68,340.68c0,0,11.67-29.22,133.19-11.37c0,0,48.75,88.57-25.4,129.76
				C1154.21,457.77,1182.72,356.59,1044.68,340.68z"/>
			<path class="st2" d="M1127.75,400.02c-4.48-2.27,8.24,72.77-80.33,64.54c-7.6-0.71,55.61,45.31,55.61,45.31
				S1180.61,426.8,1127.75,400.02z"/>
			<path class="st2" d="M1054.98,399.97c0.23-1.08-0.64,2.39-1.13,3.9c-3.6,11.09-11.29,31.62-7.06,40.13
				c7.5,15.07,35.65,6.14,35.65,6.14S1052.23,412.97,1054.98,399.97z"/>
			<path class="st2" d="M1079.69,385.6c3.43-1.37,19.22-4.12,30.9,8.93c11.67,13.04,2.6,39.45-3.43,31.74
				C1098.44,415.13,1079.69,385.6,1079.69,385.6z"/>
			<path class="st2" d="M1075.57,426.27c-1.37-6.33-11.89-18.53-11.58-32.42c0.22-9.46,19.13,9.77,21.19,16.21
				C1087.24,416.5,1075.57,426.27,1075.57,426.27z"/>
			<path class="st2" d="M1089.27,421.41c0.44,4.12-8.08,12.12,1.41,22.59c2.54,2.81,6.11-7.24,5.82-16.35
				C1096.3,421.5,1089.27,421.41,1089.27,421.41z"/>
			<path class="st2" d="M1013.23,472.57c-10.68,15.55-7.12,83.08,12.46,83.67c19.58,0.59,62.73-41.54,70.82-35.61
				S1013.23,472.57,1013.23,472.57z"/>
			<path class="st2" d="M1163.35,466.05c-8.05-8.9-40.54,84.85-94.05,81.88c0.17,6.85,42.43,18.99,72.1,19.58
				c21.03,0.42,29.09,13.29,31.45,11.27C1178.62,573.85,1185.89,490.97,1163.35,466.05z"/>
			<path class="st2" d="M1176.26,456.29c7.26-9.24,17.94-27.87,20.31-28.64c2.37-0.77,37.98,30.69-5.48,83.99L1176.26,456.29z"/>
		</g>
		<g>
			<path class="st2" d="M866.67,1703.74c0.97-37.13,13.03-62.26,24.62-75.3c11.58-13.03,116.19,53.07,98.65,47.78
				C952.36,1664.89,866.46,1711.8,866.67,1703.74z"/>
			<path class="st2" d="M859.69,1704.68c-18.82,42.5,6.98,125.04,6.98,125.04c-25.81,20.27-59.11-69.5-72.14-83.98
				C780.76,1730.43,859.69,1704.68,859.69,1704.68z"/>
			<path class="st2" d="M810.46,1808c7.24,18.82-0.11,49.22,36.2,86.88c10.14,10.51,5.79-43.44,5.79-43.44L810.46,1808z"/>
			<path class="st2" d="M897.34,1832.69c0,0-15.93-63.78,11.58-82.61s75.35,6.3,73.85,0c-9.44-39.61-110.87-34.78-110.87-34.78
				S846.66,1773.44,897.34,1832.69z"/>
			<path class="st2" d="M904.68,1704.68c0,0,11.67-29.22,133.19-11.37c0,0,48.75,88.57-25.4,129.76
				C1014.21,1821.77,1042.72,1720.59,904.68,1704.68z"/>
			<path class="st2" d="M987.75,1764.02c-4.48-2.27,8.24,72.77-80.33,64.54c-7.6-0.71,55.61,45.31,55.61,45.31
				S1040.61,1790.8,987.75,1764.02z"/>
			<path class="st2" d="M914.98,1763.97c0.23-1.08-0.64,2.39-1.13,3.9c-3.6,11.09-11.29,31.62-7.06,40.13
				c7.5,15.07,35.65,6.14,35.65,6.14S912.23,1776.97,914.98,1763.97z"/>
			<path class="st2" d="M939.69,1749.6c3.43-1.37,19.22-4.12,30.89,8.93s2.6,39.45-3.43,31.74
				C958.44,1779.13,939.69,1749.6,939.69,1749.6z"/>
			<path class="st2" d="M935.57,1790.27c-1.37-6.33-11.89-18.53-11.58-32.42c0.22-9.46,19.13,9.77,21.19,16.21
				C947.24,1780.5,935.57,1790.27,935.57,1790.27z"/>
			<path class="st2" d="M949.27,1785.41c0.44,4.12-8.08,12.12,1.41,22.59c2.54,2.81,6.11-7.24,5.82-16.35
				C956.3,1785.5,949.27,1785.41,949.27,1785.41z"/>
			<path class="st2" d="M873.23,1836.57c-10.68,15.54-7.12,83.08,12.46,83.67c19.58,0.59,62.73-41.54,70.82-35.61
				C964.6,1890.57,873.23,1836.57,873.23,1836.57z"/>
			<path class="st2" d="M1023.35,1830.05c-8.05-8.9-40.54,84.85-94.05,81.88c0.17,6.85,42.43,18.99,72.1,19.58
				c21.03,0.42,29.09,13.29,31.45,11.27C1038.62,1937.85,1045.89,1854.97,1023.35,1830.05z"/>
			<path class="st2" d="M1036.26,1820.29c7.26-9.24,17.94-27.87,20.31-28.64c2.37-0.77,37.98,30.69-5.48,83.99L1036.26,1820.29z"/>
		</g>
	</g>
</g>
<rect x="203.45" y="1001.18" class="st6" width="718.96" height="213.55"/>
<text transform="matrix(1 0 0 1 203.4487 1040.7637)"><tspan x="0" y="0" class="st7 st8 st9">Click on the add button to start </tspan><tspan x="0" y="71" class="st7 st8 st9">your collection of Succulents!</tspan></text>
</svg>
