<?xml version="1.0" encoding="utf-8"?>
<!-- Generator: Adobe Illustrator 24.1.0, SVG Export Plug-In . SVG Version: 6.00 Build 0)  -->
<svg version="1.1" id="Layer_1" xmlns="http://www.w3.org/2000/svg" xmlns:xlink="http://www.w3.org/1999/xlink" x="0px" y="0px"
	 viewBox="0 0 621.45 428.95" style="enable-background:new 0 0 621.45 428.95;" xml:space="preserve">
<style type="text/css">
	.st0{fill:#7494A0;}
	.st1{fill:#DCA59C;}
	.st2{fill:none;stroke:#7494A0;stroke-miterlimit:10;}
</style>
<path class="st0" d="M97.81,230.8v-10.16c3.15,2.69,6.42,4.44,10.62,4.44c6.07,0,10.98-4.09,10.98-10.39
	c0-18.56-32.34-20.43-32.34-43.67c0-14.71,12.14-22.65,25.8-22.65c12.03,0,24.05,7.71,24.05,20.67c0,7.01-3.97,12.49-10.16,15.65
	l-5.6-5.96c3.74-1.98,6.54-4.79,6.54-9.46c0-8.29-7.12-12.73-14.83-12.73c-8.52,0-16.7,5.02-16.7,14.48
	c0,17.51,32.11,20.67,32.11,43.67c0,11.68-8.64,18.92-19.85,18.92C104.58,233.61,101.2,232.91,97.81,230.8z"/>
<path class="st0" d="M194.14,223.57v7.59c-2.45,1.87-5.72,2.45-8.64,2.45c-4.9,0-9.11-3.15-10.74-8.41
	c-2.22,5.25-7.01,8.52-12.73,8.52c-9.57,0-15.65-7.24-15.65-16.46v-25.92h8.52v25.22c0,5.6,2.92,9.69,8.87,9.69
	c5.72,0,9.81-5.49,10.27-11.09v-23.82h8.41v28.72c0,3.27,2.22,5.84,5.6,5.84C190.4,225.9,192.39,225.2,194.14,223.57z"/>
<path class="st0" d="M223.09,225.78c4.32,0,9.22-0.93,12.73-3.62v8.76c-3.74,1.99-8.52,2.69-12.73,2.69c-12.61,0-23-8.99-23-21.83
	c0-11.56,9.11-21.48,20.9-21.48c6.54,0,15.53,2.57,15.53,10.51c0,3.85-2.8,6.89-6.66,6.89c-3.27,0-6.54-2.92-6.54-6.19
	c0-1.17,0.23-2.22,0.7-3.04c-1.05-0.23-2.22-0.35-3.27-0.35c-7.71,0-12.73,6.19-12.73,13.66
	C208.03,219.95,215.15,225.78,223.09,225.78z"/>
<path class="st0" d="M271.77,225.78c4.32,0,9.22-0.93,12.73-3.62v8.76c-3.74,1.99-8.52,2.69-12.73,2.69c-12.61,0-23-8.99-23-21.83
	c0-11.56,9.11-21.48,20.9-21.48c6.54,0,15.53,2.57,15.53,10.51c0,3.85-2.8,6.89-6.66,6.89c-3.27,0-6.54-2.92-6.54-6.19
	c0-1.17,0.23-2.22,0.7-3.04c-1.05-0.23-2.22-0.35-3.27-0.35c-7.71,0-12.73,6.19-12.73,13.66
	C256.71,219.95,263.83,225.78,271.77,225.78z"/>
<path class="st1" d="M339.4,222.75c-4.55,7.82-11.91,10.86-21.02,10.86c-14.24,0-22.77-11.21-22.77-24.75v-36.2"/>
<path class="st0" d="M369.88,232.61c-7.12,0-11.44-6.07-11.44-12.73v-71.22h8.52v70.41c0,3.27,2.1,5.84,5.49,5.84
	c2.33,0,4.32-0.7,6.07-2.33v7.59C376.07,232.02,372.92,232.61,369.88,232.61z"/>
<path class="st0" d="M427.68,211.01c0,11.79-9.69,21.72-21.6,21.72c-11.91,0-21.6-9.92-21.6-21.72c0-11.91,9.69-21.72,21.6-21.72
	C417.98,189.29,427.68,199.1,427.68,211.01z M420.2,211.01c0-1.4-0.12-2.8-0.47-4.2c-1.17,1.05-2.8,1.63-4.44,1.63
	c-3.74,0-6.89-3.04-6.89-6.77c0-1.63,0.58-3.15,1.75-4.32c-1.4-0.35-2.8-0.58-4.2-0.58c-7.82,0-13.78,6.54-13.78,14.25
	s6.07,14.25,13.89,14.25C413.9,225.25,420.2,218.71,420.2,211.01z"/>
<path class="st0" d="M479.86,196.99v18.21c0,10.86-7.36,17.51-18.1,17.51c-10.74,0-18.1-6.66-18.1-17.51v-24.87h8.52v24.05
	c0,6.31,3.5,10.86,10.04,10.86c6.66,0,10.16-4.55,10.16-10.86v-10.27c-4.09,0.23-7.59-2.92-7.59-7.36c0-4.09,3.27-7.47,7.47-7.47
	C476.59,189.29,479.86,192.79,479.86,196.99z"/>
<path class="st0" d="M518.62,225.25c3.85,0,8.52-0.93,12.14-3.74v8.41c-3.74,1.99-8.52,2.69-12.03,2.69
	c-13.19,0-23.47-9.11-23.47-21.83c0-11.56,9.57-21.48,21.13-21.48c7.71,0,13.31,3.27,17.98,9.11l-24.64,24.52
	C512.2,224.43,515.24,225.25,518.62,225.25z M502.98,210.77c0,2.8,0.7,5.37,2.1,7.47l18.68-18.8c-1.99-1.63-5.02-2.8-7.59-2.8
	C508.35,196.64,502.98,203.18,502.98,210.77z"/>
<g>
	<path class="st2" d="M341.88,190.3c0,0,1.77-3,2.45-5.99c0.66-2.92,0.48-7.19,0.3-7.17"/>
	<path class="st2" d="M335.02,184.66"/>
	<path class="st2" d="M331.23,187.63c0,0,4.4,0.52,7.16,1.33c2.65,0.78,7.39,3.19,7.39,3.19c-1.16,3.21-4.56,6.42-5.37,7.47
		c-0.81,1.04-3.9,3.87-3.9,3.87l-18.68-5.37c8.94-6.99,17.87-13.99,26.81-20.98"/>
	<path class="st2" d="M345.78,192.15l-27.95,5.97c0,0,5.66,6.85,8.01,8.41c5.08,3.37,10.51,1.97,10.51,1.97l0.15-5.01"/>
	<path class="st2" d="M331.2,176.64c0,0,3.34-0.99,6.41-0.93c3,0.06,7.09,1.27,7.03,1.43"/>
	<path class="st2" d="M335.02,184.66"/>
	<path class="st2" d="M331.23,187.63c0,0,0.56-4.4,0.43-7.27c-0.12-2.76-1.32-7.94-1.32-7.94c-3.4,0.35-7.33,2.88-8.54,3.42
		s-4.7,2.86-4.7,2.86l0.72,19.42c8.94-6.99,17.87-13.99,26.81-20.98"/>
	<path class="st2" d="M330.34,172.42l-12.52,25.7c0,0-5.29-7.14-6.24-9.8c-2.04-5.74,0.62-10.68,0.62-10.68l4.9,1.06"/>
</g>
</svg>
