<?xml version="1.0" encoding="utf-8"?>
<!-- Generator: Adobe Illustrator 24.3.0, SVG Export Plug-In . SVG Version: 6.00 Build 0)  -->
<svg version="1.1" id="Layer_1" xmlns="http://www.w3.org/2000/svg" xmlns:xlink="http://www.w3.org/1999/xlink" x="0px" y="0px"
	 viewBox="0 0 621.45 428.95" style="enable-background:new 0 0 621.45 428.95;" xml:space="preserve">
<style type="text/css">
	.st0{fill:#7494A0;}
	.st1{fill:#DCA59C;}
	.st2{fill:none;stroke:#7494A0;stroke-width:1.4174;stroke-miterlimit:10;}
</style>
<path class="st0" d="M109.58,267.1v-10.16c3.15,2.69,6.42,4.44,10.62,4.44c6.07,0,10.98-4.09,10.98-10.39
	c0-18.56-32.34-20.43-32.34-43.67c0-14.71,12.14-22.65,25.8-22.65c12.03,0,24.05,7.71,24.05,20.67c0,7.01-3.97,12.49-10.16,15.65
	l-5.6-5.96c3.74-1.98,6.54-4.79,6.54-9.46c0-8.29-7.12-12.73-14.83-12.73c-8.52,0-16.7,5.02-16.7,14.48
	c0,17.51,32.11,20.67,32.11,43.67c0,11.68-8.64,18.92-19.85,18.92C116.36,269.9,112.97,269.2,109.58,267.1z"/>
<path class="st0" d="M205.91,259.86v7.59c-2.45,1.87-5.72,2.45-8.64,2.45c-4.9,0-9.11-3.15-10.74-8.41
	c-2.22,5.25-7.01,8.52-12.73,8.52c-9.57,0-15.65-7.24-15.65-16.46v-25.92h8.52v25.22c0,5.6,2.92,9.69,8.87,9.69
	c5.72,0,9.81-5.49,10.27-11.09v-23.82h8.41v28.72c0,3.27,2.22,5.84,5.6,5.84C202.17,262.2,204.16,261.5,205.91,259.86z"/>
<path class="st0" d="M357.47,259.86v7.59c-2.45,1.87-5.72,2.45-8.64,2.45c-4.9,0-9.11-3.15-10.74-8.41
	c-2.22,5.25-7.01,8.52-12.73,8.52c-9.57,0-15.65-7.24-15.65-16.46v-25.92h8.52v25.22c0,5.6,2.92,9.69,8.87,9.69
	c5.72,0,9.81-5.49,10.27-11.09v-23.82h8.41v28.72c0,3.27,2.22,5.84,5.6,5.84C353.73,262.2,355.72,261.5,357.47,259.86z"/>
<path class="st0" d="M234.86,262.08c4.32,0,9.22-0.93,12.73-3.62v8.76c-3.74,1.99-8.52,2.69-12.73,2.69c-12.61,0-23-8.99-23-21.83
	c0-11.56,9.11-21.48,20.9-21.48c6.54,0,15.53,2.57,15.53,10.51c0,3.85-2.8,6.89-6.66,6.89c-3.27,0-6.54-2.92-6.54-6.19
	c0-1.17,0.23-2.22,0.7-3.04c-1.05-0.23-2.22-0.35-3.27-0.35c-7.71,0-12.73,6.19-12.73,13.66
	C219.8,256.24,226.92,262.08,234.86,262.08z"/>
<path class="st0" d="M283.55,262.08c4.32,0,9.22-0.93,12.73-3.62v8.76c-3.74,1.99-8.52,2.69-12.73,2.69c-12.61,0-23-8.99-23-21.83
	c0-11.56,9.11-21.48,20.9-21.48c6.54,0,15.53,2.57,15.53,10.51c0,3.85-2.8,6.89-6.66,6.89c-3.27,0-6.54-2.92-6.54-6.19
	c0-1.17,0.23-2.22,0.7-3.04c-1.05-0.23-2.22-0.35-3.27-0.35c-7.71,0-12.73,6.19-12.73,13.66
	C268.48,256.24,275.6,262.08,283.55,262.08z"/>
<path class="st0" d="M381.65,268.9c-7.12,0-11.44-6.07-11.44-12.73v-71.22h8.52v70.41c0,3.27,2.1,5.84,5.49,5.84
	c2.33,0,4.32-0.7,6.07-2.33v7.59C387.84,268.32,384.69,268.9,381.65,268.9z"/>
<path class="st0" d="M421.64,261.55c3.85,0,8.52-0.93,12.14-3.74v8.41c-3.74,1.99-8.52,2.69-12.03,2.69
	c-13.19,0-23.47-9.11-23.47-21.83c0-11.56,9.57-21.48,21.13-21.48c7.71,0,13.31,3.27,17.98,9.11l-24.64,24.52
	C415.22,260.73,418.25,261.55,421.64,261.55z M405.99,247.07c0,2.8,0.7,5.37,2.1,7.47l18.68-18.8c-1.99-1.63-5.02-2.8-7.59-2.8
	C411.37,232.94,405.99,239.48,405.99,247.07z"/>
<path class="st1" d="M360.1,143.34c-6.45,11.09-16.88,15.39-29.79,15.39c-20.19,0-32.27-15.89-32.27-35.09v-51.3"/>
<g>
	<path class="st2" d="M363.62,97.35c0,0,2.51-4.25,3.47-8.49c0.94-4.14,0.68-10.19,0.43-10.16"/>
	<path class="st2" d="M353.9,89.36"/>
	<path class="st2" d="M348.52,93.56c0,0,6.24,0.74,10.15,1.89c3.76,1.11,10.47,4.52,10.47,4.52c-1.64,4.56-6.46,9.1-7.62,10.58
		c-1.15,1.48-5.53,5.49-5.53,5.49l-26.47-7.61c12.67-9.91,25.34-19.82,38-29.73"/>
	<path class="st2" d="M369.14,99.97l-39.62,8.46c0,0,8.02,9.71,11.35,11.93c7.2,4.77,14.9,2.79,14.9,2.79l0.22-7.11"/>
	<path class="st2" d="M348.47,77.99c0,0,4.73-1.41,9.08-1.32c4.25,0.08,10.05,1.79,9.97,2.03"/>
	<path class="st2" d="M353.9,89.36"/>
	<path class="st2" d="M348.52,93.56c0,0,0.79-6.23,0.61-10.3c-0.17-3.91-1.87-11.25-1.87-11.25c-4.82,0.49-10.39,4.08-12.1,4.85
		c-1.71,0.76-6.66,4.05-6.66,4.05l1.02,27.53c12.67-9.91,25.34-19.82,38-29.73"/>
	<path class="st2" d="M347.26,72.01l-17.74,36.42c0,0-7.5-10.12-8.84-13.89c-2.9-8.14,0.87-15.13,0.87-15.13l6.95,1.5"/>
</g>
<path class="st0" d="M491.21,258.39v7.28c-2.35,1.79-5.49,2.35-8.06,2.35c-7.06,0-11.2-5.82-11.2-12.21v-12.99
	c0-5.49-2.91-9.41-8.06-9.41c-5.94,0-9.86,5.04-10.3,10.75v22.85h-8.18v-39.54h8.18v5.49c2.35-4.14,6.72-6.5,11.87-6.5
	c8.74,0,14.56,6.72,14.56,15.68v12.88c0,3.14,2.13,5.6,5.71,5.6C487.62,260.63,489.53,259.96,491.21,258.39z"/>
<path class="st0" d="M502.23,254.85v-19.6h-11.87v-7.62h11.87v-22.29h8.06v22.29h12.32v7.62h-12.32v18.7c0,3.58,1.79,6.94,5.71,6.94
	c2.46,0,4.48-0.78,6.27-2.35v7.28c-2.24,1.79-4.93,2.35-7.73,2.35C506.49,268.18,502.23,262.58,502.23,254.85z"/>
</svg>
