<?xml version="1.0" encoding="utf-8"?>
<!-- Generator: Adobe Illustrator 24.3.0, SVG Export Plug-In . SVG Version: 6.00 Build 0)  -->
<svg version="1.1" id="Layer_1" xmlns="http://www.w3.org/2000/svg" xmlns:xlink="http://www.w3.org/1999/xlink" x="0px" y="0px"
	 viewBox="0 0 300 300" style="enable-background:new 0 0 300 300;" xml:space="preserve">
<style type="text/css">
	.st0{fill:none;stroke:#182D33;stroke-width:15;stroke-miterlimit:10;}
</style>
<g>
	<path class="st0" d="M253.74,147.67c0,0,13.52-22.89,18.69-45.73c5.07-22.3,3.66-54.89,2.31-54.73"/>
	<path class="st0" d="M201.38,104.62"/>
	<path class="st0" d="M172.4,127.25c0,0,33.61,3.99,54.67,10.18c20.25,5.98,56.4,24.35,56.4,24.35
		c-8.84,24.57-34.79,49.02-41.05,56.99c-6.2,7.97-29.79,29.58-29.79,29.58L75.28,206.23c68.24-53.39,131.27-105.65,199.47-159.03"/>
	<path class="st0" d="M283.47,161.78L70.05,207.34c0,0,43.2,52.3,61.14,64.26c38.78,25.69,80.26,15.03,80.26,15.03l1.19-38.3"/>
	<path class="st0" d="M172.13,43.38c0,0,25.48-7.6,48.91-7.11c22.89,0.43,54.13,9.64,53.7,10.94"/>
	<path class="st0" d="M201.38,104.62"/>
	<path class="st0" d="M172.4,127.25c0,0,4.26-33.56,3.29-55.49c-0.91-21.07-10.07-60.6-10.07-60.6
		c-25.97,2.64-55.97,21.98-65.17,26.12c-9.21,4.1-35.88,21.81-35.88,21.81l8.57,141.94c68.24-53.38,133.42-100.4,201.62-153.79"/>
	<path class="st0" d="M165.61,11.17L70.05,207.34c0,0-40.4-54.52-47.62-74.83c-15.62-43.85,4.69-81.5,4.69-81.5l37.44,8.08"/>
</g>
</svg>
