<?xml version="1.0" encoding="utf-8"?>
<!-- Generator: Adobe Illustrator 24.3.0, SVG Export Plug-In . SVG Version: 6.00 Build 0)  -->
<svg version="1.1" id="Layer_1" xmlns="http://www.w3.org/2000/svg" xmlns:xlink="http://www.w3.org/1999/xlink" x="0px" y="0px"
	 viewBox="0 0 300 300" style="enable-background:new 0 0 300 300;" xml:space="preserve">
<style type="text/css">
	.st0{fill:none;stroke:#182D33;stroke-width:7;stroke-linecap:round;stroke-linejoin:round;stroke-miterlimit:10;}
</style>
<path class="st0" d="M76.65,290.14l117.59-130.77c1.39-1.33,55.66,0.87,85.54-25.58c12.82-11.35,18.64-37.95,16.19-74.47
	c-0.08-1.12-1.43-1.66-2.25-0.9l-50.34,46.94l-36.44-13.93l-7.54-37.22l43.72-42.39c0.81-0.78,0.34-2.16-0.78-2.28
	c-12.5-1.38-63.81-5.33-82.46,20.33c-15.53,21.35-8.97,68.26-12.23,71.37L9.09,223.28c-6.79,6.48-6.79,16.98,0,23.45l42.98,43.41
	C58.86,296.62,69.86,296.62,76.65,290.14z"/>
</svg>
