<?xml version="1.0" encoding="utf-8"?>
<!-- Generator: Adobe Illustrator 24.3.0, SVG Export Plug-In . SVG Version: 6.00 Build 0)  -->
<svg version="1.1" id="Layer_1" xmlns="http://www.w3.org/2000/svg" xmlns:xlink="http://www.w3.org/1999/xlink" x="0px" y="0px"
	 viewBox="0 0 300 300" style="enable-background:new 0 0 300 300;" xml:space="preserve">
<style type="text/css">
	.st0{fill:#D4E6CA;}
	.st1{fill:none;stroke:#73939F;stroke-width:2.2146;stroke-miterlimit:10;}
	.st2{fill:#DBA49A;}
</style>
<path class="st0" d="M269.68,300H30.09C13.47,300,0,286.53,0,269.91V30.09C0,13.47,13.47,0,30.09,0h239.59
	c16.62,0,30.09,13.47,30.09,30.09v239.82C299.77,286.53,286.3,300,269.68,300z"/>
<g>
	<g>
		<path class="st1" d="M196.69,115.07c0,0,3.91-6.65,5.42-13.27c1.47-6.47,1.06-15.91,0.67-15.88"/>
		<path class="st1" d="M181.49,102.58"/>
		<path class="st1" d="M173.09,109.15c0,0,9.75,1.15,15.85,2.95c5.87,1.73,16.36,7.06,16.36,7.06c-2.56,7.12-10.1,14.22-11.9,16.53
			c-1.8,2.31-8.65,8.57-8.65,8.57l-41.36-11.89c19.79-15.49,39.59-30.97,59.38-46.46"/>
		<path class="st1" d="M205.31,119.17l-61.91,13.22c0,0,12.52,15.18,17.74,18.63c11.25,7.45,23.28,4.36,23.28,4.36l0.34-11.1"/>
		<path class="st1" d="M173.02,84.82c0,0,7.39-2.2,14.19-2.07c6.64,0.13,15.7,2.8,15.57,3.17"/>
		<path class="st1" d="M181.49,102.58"/>
		<path class="st1" d="M173.09,109.15c0,0,1.23-9.74,0.95-16.1c-0.27-6.11-2.92-17.58-2.92-17.58c-7.53,0.77-16.23,6.38-18.91,7.57
			c-2.68,1.19-10.4,6.33-10.4,6.33l1.59,43.01c19.79-15.49,39.59-30.97,59.38-46.46"/>
		<path class="st1" d="M171.12,75.47l-27.72,56.91c0,0-11.72-15.81-13.82-21.7c-4.53-12.71,1.37-23.65,1.37-23.65l10.86,2.34"/>
	</g>
	<path class="st2" d="M191.2,186.93c-10.08,17.32-26.37,24.05-46.54,24.05c-31.54,0-50.42-24.82-50.42-54.82V76"/>
</g>
</svg>
